<svg xmlns="http://www.w3.org/2000/svg" xmlns:xlink="http://www.w3.org/1999/xlink" width="500" zoomAndPan="magnify" viewBox="0 0 375 374.999991" height="500" preserveAspectRatio="xMidYMid meet" version="1.0"><defs><g/><clipPath id="910340c09b"><path d="M 190.367188 66 L 323.035156 66 L 323.035156 348.792969 L 190.367188 348.792969 Z M 190.367188 66 " clip-rule="nonzero"/></clipPath><clipPath id="4922ca3807"><path d="M 52.289062 66 L 185 66 L 185 348.796875 L 52.289062 348.796875 Z M 52.289062 66 " clip-rule="nonzero"/></clipPath><clipPath id="a5f1618fe7"><path d="M 162 11.296875 L 213 11.296875 L 213 61 L 162 61 Z M 162 11.296875 " clip-rule="nonzero"/></clipPath></defs><path fill="#be1e2d" d="M 267.890625 110.828125 C 276.917969 118.40625 278.085938 131.859375 270.5 140.878906 C 262.914062 149.894531 249.445312 151.0625 240.417969 143.484375 C 231.390625 135.90625 230.21875 122.457031 237.808594 113.4375 C 245.390625 104.421875 258.859375 103.253906 267.890625 110.828125 " fill-opacity="1" fill-rule="nonzero"/><path fill="#be1e2d" d="M 292.730469 132.53125 C 292.996094 133.085938 292.933594 133.765625 292.511719 134.265625 C 292.089844 134.769531 291.429688 134.945312 290.835938 134.78125 L 290.6875 134.960938 L 285.972656 145.082031 L 280.492188 140.480469 L 289.660156 134.101562 L 289.8125 133.921875 C 289.546875 133.363281 289.609375 132.683594 290.03125 132.183594 C 290.449219 131.683594 291.113281 131.503906 291.707031 131.667969 L 299.429688 122.488281 L 293.875 112.570312 L 296.550781 121.523438 L 290.195312 119.402344 L 280.238281 131.234375 C 281.605469 122.417969 278.46875 113.113281 271.144531 106.964844 C 263.941406 100.917969 254.425781 99.390625 246.0625 102.0625 L 255.777344 90.515625 L 247.996094 76.15625 L 286.054688 89.421875 L 305.699219 124.582031 L 300.796875 122.945312 L 292.730469 132.53125 " fill-opacity="1" fill-rule="nonzero"/><g clip-path="url(#910340c09b)"><path fill="#be1e2d" d="M 239.417969 308.023438 C 239.417969 308.023438 205.445312 298.703125 205.183594 237.003906 C 205.070312 210.679688 209.785156 189.65625 201.558594 151.515625 C 193.332031 113.375 187.820312 88.683594 192.015625 66.027344 C 192.015625 66.027344 199.578125 116.492188 239.417969 140.335938 C 289.472656 170.289062 311.183594 202.804688 309.867188 241.605469 C 309.867188 241.605469 294.222656 202.921875 258.261719 192.820312 C 258.261719 192.820312 255.449219 301.445312 323.035156 348.792969 C 323.035156 348.792969 265.378906 338.734375 228.226562 246.207031 C 228.226562 246.207031 222.960938 289.609375 239.417969 308.023438 " fill-opacity="1" fill-rule="nonzero"/></g><path fill="#fba319" d="M 107.433594 110.828125 C 98.40625 118.40625 97.234375 131.859375 104.824219 140.878906 C 112.40625 149.894531 125.875 151.0625 134.90625 143.484375 C 143.933594 135.90625 145.101562 122.457031 137.515625 113.4375 C 129.929688 104.421875 116.460938 103.253906 107.433594 110.828125 " fill-opacity="1" fill-rule="nonzero"/><path fill="#fba319" d="M 82.59375 132.53125 C 82.328125 133.085938 82.390625 133.765625 82.8125 134.265625 C 83.230469 134.769531 83.894531 134.945312 84.488281 134.78125 L 84.636719 134.960938 L 89.351562 145.082031 L 94.832031 140.480469 L 85.664062 134.101562 L 85.511719 133.921875 C 85.777344 133.363281 85.714844 132.683594 85.292969 132.183594 C 84.871094 131.683594 84.210938 131.503906 83.617188 131.667969 L 75.894531 122.488281 L 81.449219 112.570312 L 78.773438 121.523438 L 85.128906 119.402344 L 95.085938 131.234375 C 93.71875 122.417969 96.855469 113.113281 104.179688 106.964844 C 111.382812 100.917969 120.898438 99.390625 129.257812 102.0625 L 119.546875 90.515625 L 127.328125 76.15625 L 89.269531 89.421875 L 69.625 124.582031 L 74.527344 122.945312 L 82.59375 132.53125 " fill-opacity="1" fill-rule="nonzero"/><g clip-path="url(#4922ca3807)"><path fill="#fba319" d="M 135.90625 308.023438 C 135.90625 308.023438 169.878906 298.703125 170.140625 237.003906 C 170.253906 210.679688 165.539062 189.65625 173.765625 151.515625 C 181.992188 113.375 187.503906 88.683594 183.308594 66.027344 C 183.308594 66.027344 175.746094 116.492188 135.90625 140.335938 C 85.851562 170.289062 64.140625 202.804688 65.457031 241.605469 C 65.457031 241.605469 81.097656 202.921875 117.0625 192.820312 C 117.0625 192.820312 119.875 301.445312 52.289062 348.792969 C 52.289062 348.792969 109.941406 338.734375 147.097656 246.207031 C 147.097656 246.207031 152.363281 289.609375 135.90625 308.023438 " fill-opacity="1" fill-rule="nonzero"/></g><g clip-path="url(#a5f1618fe7)"><path fill="#f6921e" d="M 186.75 55.933594 L 187.519531 60.96875 L 188.203125 55.921875 C 189.539062 46.027344 197.246094 38.191406 207.128906 36.6875 L 212.171875 35.921875 L 207.117188 35.238281 C 197.210938 33.902344 189.367188 26.207031 187.863281 16.335938 L 187.089844 11.300781 L 186.410156 16.347656 C 185.074219 26.242188 177.367188 34.074219 167.484375 35.578125 L 162.441406 36.347656 L 167.496094 37.03125 C 177.402344 38.367188 185.242188 46.0625 186.75 55.933594 " fill-opacity="1" fill-rule="nonzero"/></g><g fill="#40240a" fill-opacity="1"><g transform="translate(145.54687, 346.499977)"><g><path d="M 11 -27.5625 C 12.757812 -27.5625 14.269531 -27.34375 15.53125 -26.90625 C 16.800781 -26.476562 17.832031 -25.96875 18.625 -25.375 C 19.425781 -24.789062 20.007812 -24.28125 20.375 -23.84375 C 20.75 -23.414062 20.9375 -23.203125 20.9375 -23.203125 L 20.9375 -19.96875 L 19.46875 -19.96875 L 19.421875 -20.390625 C 19.296875 -21.316406 18.914062 -22.207031 18.28125 -23.0625 C 17.65625 -23.925781 16.816406 -24.632812 15.765625 -25.1875 C 14.710938 -25.75 13.523438 -26.03125 12.203125 -26.03125 C 10.816406 -26.03125 9.664062 -25.691406 8.75 -25.015625 C 7.84375 -24.335938 7.390625 -23.320312 7.390625 -21.96875 C 7.390625 -19.988281 8.410156 -18.476562 10.453125 -17.4375 L 17.75 -13.6875 C 19.289062 -12.914062 20.414062 -12 21.125 -10.9375 C 21.832031 -9.875 22.1875 -8.617188 22.1875 -7.171875 C 22.1875 -4.765625 21.273438 -2.875 19.453125 -1.5 C 17.640625 -0.125 15.253906 0.5625 12.296875 0.5625 C 10.421875 0.5625 8.8125 0.335938 7.46875 -0.109375 C 6.125 -0.554688 5.035156 -1.066406 4.203125 -1.640625 C 3.367188 -2.210938 2.757812 -2.722656 2.375 -3.171875 C 1.988281 -3.617188 1.796875 -3.84375 1.796875 -3.84375 L 1.796875 -6.984375 L 3.28125 -6.984375 L 3.328125 -6.609375 C 3.453125 -5.648438 3.882812 -4.738281 4.625 -3.875 C 5.363281 -3.019531 6.316406 -2.3125 7.484375 -1.75 C 8.660156 -1.195312 9.941406 -0.921875 11.328125 -0.921875 C 12.960938 -0.921875 14.253906 -1.304688 15.203125 -2.078125 C 16.160156 -2.847656 16.640625 -3.910156 16.640625 -5.265625 C 16.640625 -6.097656 16.40625 -6.867188 15.9375 -7.578125 C 15.476562 -8.285156 14.664062 -8.9375 13.5 -9.53125 L 6.609375 -13.03125 C 4.910156 -13.894531 3.679688 -14.84375 2.921875 -15.875 C 2.171875 -16.914062 1.796875 -18.175781 1.796875 -19.65625 C 1.796875 -22.050781 2.628906 -23.96875 4.296875 -25.40625 C 5.960938 -26.84375 8.195312 -27.5625 11 -27.5625 Z M 11 -27.5625 "/></g></g></g><g fill="#40240a" fill-opacity="1"><g transform="translate(169.488183, 346.499977)"><g><path d="M 1.484375 -1.53125 L 2.171875 -1.53125 C 2.515625 -1.53125 2.804688 -1.644531 3.046875 -1.875 C 3.296875 -2.101562 3.421875 -2.390625 3.421875 -2.734375 L 3.421875 -25.15625 C 3.078125 -25.363281 2.644531 -25.46875 2.125 -25.46875 L 1.484375 -25.46875 L 1.484375 -26.953125 L 11.875 -26.953125 L 11.875 -25.46875 L 11 -25.46875 C 10.8125 -25.46875 10.640625 -25.382812 10.484375 -25.21875 C 10.335938 -25.050781 10.3125 -24.84375 10.40625 -24.59375 L 18.21875 -6.609375 L 27.09375 -26.953125 L 34.578125 -26.953125 L 34.578125 -25.46875 L 33.9375 -25.46875 C 33.59375 -25.46875 33.289062 -25.34375 33.03125 -25.09375 C 32.769531 -24.851562 32.640625 -24.566406 32.640625 -24.234375 L 32.640625 -2.734375 C 32.640625 -2.390625 32.757812 -2.101562 33 -1.875 C 33.25 -1.644531 33.546875 -1.53125 33.890625 -1.53125 L 34.578125 -1.53125 L 34.578125 0 L 25.15625 0 L 25.15625 -1.53125 L 25.796875 -1.53125 C 26.140625 -1.53125 26.441406 -1.644531 26.703125 -1.875 C 26.960938 -2.101562 27.09375 -2.390625 27.09375 -2.734375 L 27.09375 -23.203125 L 16.734375 0.5625 L 15.25 0.5625 L 4.90625 -23.203125 L 4.90625 -2.734375 C 4.90625 -2.390625 5.023438 -2.101562 5.265625 -1.875 C 5.515625 -1.644531 5.8125 -1.53125 6.15625 -1.53125 L 6.84375 -1.53125 L 6.84375 0 L 1.484375 0 Z M 1.484375 -1.53125 "/></g></g></g><g fill="#40240a" fill-opacity="1"><g transform="translate(205.492587, 346.499977)"><g><path d="M 11 -27.5625 C 12.757812 -27.5625 14.269531 -27.34375 15.53125 -26.90625 C 16.800781 -26.476562 17.832031 -25.96875 18.625 -25.375 C 19.425781 -24.789062 20.007812 -24.28125 20.375 -23.84375 C 20.75 -23.414062 20.9375 -23.203125 20.9375 -23.203125 L 20.9375 -19.96875 L 19.46875 -19.96875 L 19.421875 -20.390625 C 19.296875 -21.316406 18.914062 -22.207031 18.28125 -23.0625 C 17.65625 -23.925781 16.816406 -24.632812 15.765625 -25.1875 C 14.710938 -25.75 13.523438 -26.03125 12.203125 -26.03125 C 10.816406 -26.03125 9.664062 -25.691406 8.75 -25.015625 C 7.84375 -24.335938 7.390625 -23.320312 7.390625 -21.96875 C 7.390625 -19.988281 8.410156 -18.476562 10.453125 -17.4375 L 17.75 -13.6875 C 19.289062 -12.914062 20.414062 -12 21.125 -10.9375 C 21.832031 -9.875 22.1875 -8.617188 22.1875 -7.171875 C 22.1875 -4.765625 21.273438 -2.875 19.453125 -1.5 C 17.640625 -0.125 15.253906 0.5625 12.296875 0.5625 C 10.421875 0.5625 8.8125 0.335938 7.46875 -0.109375 C 6.125 -0.554688 5.035156 -1.066406 4.203125 -1.640625 C 3.367188 -2.210938 2.757812 -2.722656 2.375 -3.171875 C 1.988281 -3.617188 1.796875 -3.84375 1.796875 -3.84375 L 1.796875 -6.984375 L 3.28125 -6.984375 L 3.328125 -6.609375 C 3.453125 -5.648438 3.882812 -4.738281 4.625 -3.875 C 5.363281 -3.019531 6.316406 -2.3125 7.484375 -1.75 C 8.660156 -1.195312 9.941406 -0.921875 11.328125 -0.921875 C 12.960938 -0.921875 14.253906 -1.304688 15.203125 -2.078125 C 16.160156 -2.847656 16.640625 -3.910156 16.640625 -5.265625 C 16.640625 -6.097656 16.40625 -6.867188 15.9375 -7.578125 C 15.476562 -8.285156 14.664062 -8.9375 13.5 -9.53125 L 6.609375 -13.03125 C 4.910156 -13.894531 3.679688 -14.84375 2.921875 -15.875 C 2.171875 -16.914062 1.796875 -18.175781 1.796875 -19.65625 C 1.796875 -22.050781 2.628906 -23.96875 4.296875 -25.40625 C 5.960938 -26.84375 8.195312 -27.5625 11 -27.5625 Z M 11 -27.5625 "/></g></g></g></svg>